Coordinates
version=1
nRows=41
nColumns=38
inDegrees=no

Units are S.I. units (second, meters, Newtons, ...)
If the header above contains a line with 'inDegrees', this indicates whether rotational values are in degrees (yes) or radians (no).

endheader
time	pelvis_tilt	pelvis_list	pelvis_rotation	pelvis_tx	pelvis_ty	pelvis_tz	hip_flexion_r	hip_adduction_r	hip_rotation_r	knee_angle_r	ankle_angle_r	subtalar_angle_r	mtp_angle_r	hip_flexion_l	hip_adduction_l	hip_rotation_l	knee_angle_l	ankle_angle_l	subtalar_angle_l	mtp_angle_l	lumbar_extension	lumbar_bending	lumbar_rotation	arm_flex_r	arm_add_r	arm_rot_r	elbow_flex_r	pro_sup_r	wrist_flex_r	wrist_dev_r	arm_flex_l	arm_add_l	arm_rot_l	elbow_flex_l	pro_sup_l	wrist_flex_l	wrist_dev_l
0.47	-2.85972	1.42456	-1.85748	0.683516	-0.0716012	0.90388	-0.387544	-0.0850305	-0.119534	0.368628	0.332016	0	0	0.24703	0.0558591	-0.285298	0.143659	0.0273437	0	0	-0.301837	-0.140883	-0.0271678	-0.115166	-0.240144	0.167121	0.423091	0.972814	0	0	-0.112542	-0.36959	0.191511	0.62586	1.28919	0	0
0.48	-2.84174	1.42074	-1.87905	0.682058	-0.058544	0.903516	-0.387528	-0.0947492	-0.114259	0.400883	0.319535	0	0	0.248029	0.0558299	-0.30038	0.169805	-0.00456503	0	0	-0.300432	-0.148068	-0.0220696	-0.118352	-0.238068	0.156876	0.418615	0.979593	0	0	-0.117371	-0.368769	0.185753	0.620463	1.3014	0	0
0.49	-2.82338	1.41685	-1.89955	0.680275	-0.0455472	0.903511	-0.383698	-0.104881	-0.110406	0.43893	0.299253	0	0	0.250505	0.0542528	-0.319385	0.204568	-0.0206295	0	0	-0.299524	-0.154714	-0.0184437	-0.122093	-0.23615	0.146045	0.416783	0.987102	0	0	-0.121945	-0.367946	0.181093	0.616057	1.30863	0	0
0.5	-2.80798	1.41225	-1.91598	0.678251	-0.0325188	0.903974	-0.376181	-0.115495	-0.108802	0.483659	0.273502	0	0	0.254007	0.0520887	-0.335352	0.248849	-0.0130325	0	0	-0.299608	-0.160644	-0.0157644	-0.125643	-0.234552	0.137026	0.415546	0.994218	0	0	-0.126314	-0.36755	0.179434	0.612258	1.31151	0	0
0.51	-2.79564	1.4073	-1.9279	0.676102	-0.0194812	0.904924	-0.364061	-0.126212	-0.108689	0.535447	0.237669	0	0	0.256955	0.050547	-0.345003	0.295877	0.0060376	0	0	-0.300394	-0.165877	-0.0146617	-0.128874	-0.233197	0.131193	0.415061	1.00015	0	0	-0.130926	-0.368267	0.181167	0.609718	1.30958	0	0
0.52	-2.77779	1.40179	-1.94395	0.673807	-0.00643641	0.90635	-0.346831	-0.138754	-0.109596	0.593714	0.187977	0	0	0.254828	0.0529259	-0.347603	0.332938	0.0231072	0	0	-0.301393	-0.171828	-0.0152443	-0.132108	-0.231742	0.127851	0.415476	1.00345	0	0	-0.13566	-0.370031	0.185401	0.608392	1.30348	0	0
0.53	-2.74946	1.39684	-1.96911	0.671253	0.00654656	0.907968	-0.322628	-0.153866	-0.110769	0.658	0.123761	0	0	0.247113	0.0604316	-0.345313	0.354967	0.0366366	0	0	-0.301108	-0.178785	-0.0178393	-0.135171	-0.230143	0.125887	0.416379	1.00469	0	0	-0.141024	-0.372652	0.191426	0.608817	1.29336	0	0
0.54	-2.71119	1.39393	-2.00294	0.668387	0.0194347	0.909397	-0.291212	-0.170735	-0.111622	0.725695	0.0471195	0	0	0.236264	0.0719774	-0.340655	0.363765	0.0481601	0	0	-0.297792	-0.185875	-0.0222329	-0.138127	-0.228871	0.126341	0.417548	1.00319	0	0	-0.147176	-0.376025	0.199637	0.611246	1.27993	0	0
0.55	-2.66751	1.39339	-2.04163	0.665268	0.0322079	0.910458	-0.253712	-0.187897	-0.110379	0.794201	-0.0351743	0	0	0.224213	0.0856465	-0.334953	0.362926	0.0569113	0	0	-0.291234	-0.192001	-0.027433	-0.141254	-0.228343	0.129903	0.4194	0.998487	0	0	-0.154025	-0.379775	0.209356	0.615565	1.26501	0	0
0.56	-2.62183	1.39435	-2.08272	0.662104	0.0447818	0.911197	-0.211724	-0.203654	-0.103441	0.861718	-0.116971	0	0	0.211592	0.0999138	-0.329181	0.356031	0.0634571	0	0	-0.282932	-0.197127	-0.0326011	-0.144417	-0.228141	0.134293	0.421691	0.991557	0	0	-0.161526	-0.384019	0.219283	0.622703	1.2502	0	0
0.57	-2.56974	1.39675	-2.13128	0.659231	0.057026	0.911524	-0.164711	-0.215272	-0.0881417	0.924286	-0.201096	0	0	0.201194	0.113327	-0.325746	0.3489	0.0710508	0	0	-0.272371	-0.202429	-0.0369317	-0.147401	-0.227229	0.136898	0.424016	0.984546	0	0	-0.169223	-0.389511	0.229486	0.632512	1.23617	0	0
0.58	-2.53711	1.39614	-2.16062	0.656405	0.0689766	0.912383	-0.122645	-0.225373	-0.0738869	0.984942	-0.272298	0	0	0.185972	0.124841	-0.32118	0.341703	0.0800813	0	0	-0.266741	-0.205813	-0.0412759	-0.149707	-0.226266	0.135466	0.427785	0.979252	0	0	-0.175036	-0.394509	0.23825	0.641802	1.22642	0	0
0.59	-2.52155	1.39322	-2.1736	0.653812	0.0804901	0.913717	-0.0826395	-0.232591	-0.0594067	1.04211	-0.337821	0	0	0.168011	0.133903	-0.31643	0.336603	0.0895206	0	0	-0.265853	-0.208174	-0.0454692	-0.150882	-0.225454	0.132147	0.432795	0.977656	0	0	-0.178491	-0.398704	0.243378	0.649338	1.22233	0	0
0.6	-2.51439	1.38928	-2.17946	0.65174	0.0915727	0.915254	-0.0451171	-0.22989	-0.0367225	1.08888	-0.401442	0	0	0.149177	0.140776	-0.312691	0.332628	0.0985864	0	0	-0.26779	-0.210929	-0.0490259	-0.15133	-0.224435	0.127234	0.439467	0.978862	0	0	-0.181138	-0.404323	0.248011	0.658793	1.22041	0	0
0.61	-2.54574	1.38036	-2.14578	0.649146	0.102313	0.918076	-0.0199676	-0.238239	-0.028665	1.13851	-0.410267	0	0	0.118754	0.14611	-0.304257	0.322037	0.103534	0	0	-0.280176	-0.208929	-0.0534875	-0.151039	-0.225371	0.11557	0.449061	0.990663	0	0	-0.179783	-0.408162	0.255756	0.665981	1.21766	0	0
0.62	-2.56278	1.37677	-2.1274	0.647396	0.112775	0.920071	0.0111538	-0.225519	-0.00493259	1.17882	-0.388782	0	0	0.0970839	0.147505	-0.300756	0.316177	0.111279	0	0	-0.286253	-0.207755	-0.0575246	-0.149508	-0.226158	0.109027	0.457755	1.00224	0	0	-0.179364	-0.412779	0.257377	0.672592	1.22182	0	0
0.63	-2.59147	1.37319	-2.09599	0.645212	0.122968	0.922444	0.0405676	-0.219222	0.00774061	1.21993	-0.333072	0	0	0.0720301	0.147957	-0.295204	0.305135	0.116258	0	0	-0.294219	-0.203232	-0.0623797	-0.147069	-0.229034	0.102812	0.466706	1.01539	0	0	-0.175559	-0.414585	0.257942	0.67362	1.23178	0	0
0.64	-2.6245	1.37065	-2.05928	0.642871	0.132974	0.924861	0.0691408	-0.211097	0.0177306	1.25477	-0.274387	0	0	0.0461217	0.147362	-0.289026	0.290813	0.11982	0	0	-0.30182	-0.196608	-0.0680146	-0.143569	-0.23336	0.0996988	0.474859	1.02682	0	0	-0.170626	-0.415153	0.257226	0.672555	1.24496	0	0
0.65	-2.65666	1.36978	-2.02288	0.640507	0.142814	0.927112	0.0980104	-0.202079	0.0358798	1.27001	-0.242807	0	0	0.0209686	0.146253	-0.28221	0.273851	0.122039	0	0	-0.307659	-0.188829	-0.0744386	-0.138778	-0.238181	0.0988031	0.481007	1.0366	0	0	-0.165517	-0.415016	0.254622	0.67051	1.26186	0	0
0.66	-2.70302	1.36735	-1.96996	0.637825	0.152665	0.929756	0.119866	-0.189204	0.0302216	1.29916	-0.185817	0	0	-0.00888301	0.143675	-0.271584	0.252644	0.121603	0	0	-0.315984	-0.177562	-0.0829227	-0.132685	-0.243888	0.101419	0.484493	1.0441	0	0	-0.159074	-0.413608	0.252306	0.665845	1.27818	0	0
0.67	-2.74521	1.36663	-1.9208	0.635196	0.162371	0.932051	0.143822	-0.176905	0.0330135	1.31074	-0.156348	0	0	-0.0359465	0.140573	-0.26028	0.23135	0.120477	0	0	-0.321722	-0.165939	-0.0916348	-0.125455	-0.249421	0.10637	0.485005	1.05104	0	0	-0.151867	-0.412626	0.252233	0.660459	1.29196	0	0
0.68	-2.78829	1.36652	-1.8699	0.632608	0.171983	0.934131	0.167422	-0.164314	0.033646	1.31691	-0.130491	0	0	-0.0615681	0.136301	-0.247525	0.210534	0.119027	0	0	-0.326472	-0.153548	-0.100932	-0.117129	-0.254226	0.109636	0.483237	1.05634	0	0	-0.144467	-0.412149	0.253195	0.655699	1.30228	0	0
0.69	-2.83168	1.36692	-1.81797	0.630159	0.181497	0.936	0.190183	-0.151464	0.031998	1.31792	-0.105087	0	0	-0.0850771	0.130592	-0.234308	0.191639	0.11821	0	0	-0.330212	-0.140846	-0.110483	-0.10822	-0.257832	0.110615	0.479243	1.06198	0	0	-0.136628	-0.412557	0.255721	0.651837	1.30836	0	0
0.7	-2.87272	1.36742	-1.76756	0.627883	0.191044	0.937628	0.209691	-0.138089	0.0274216	1.30982	-0.0827319	0	0	-0.107029	0.124174	-0.220765	0.174347	0.118167	0	0	-0.333048	-0.128677	-0.120557	-0.0994597	-0.260131	0.110964	0.472837	1.07358	0	0	-0.129109	-0.414272	0.259767	0.649802	1.30975	0	0
0.71	-2.91393	1.36774	-1.71651	0.625653	0.20044	0.939128	0.229641	-0.12736	0.020738	1.30017	-0.0625138	0	0	-0.127929	0.117058	-0.206644	0.158215	0.118311	0	0	-0.335749	-0.116348	-0.13009	-0.0911755	-0.261918	0.109319	0.465596	1.08735	0	0	-0.120036	-0.416437	0.266513	0.646985	1.30883	0	0
0.72	-2.95189	1.36777	-1.66826	0.623464	0.209797	0.940445	0.248012	-0.118557	0.0120218	1.28541	-0.0433099	0	0	-0.148203	0.110065	-0.191764	0.142897	0.118777	0	0	-0.33831	-0.104693	-0.139472	-0.0839035	-0.263241	0.105788	0.458615	1.10162	0	0	-0.110716	-0.419078	0.272996	0.646237	1.3037	0	0
0.73	-2.98616	1.36754	-1.62345	0.621299	0.219103	0.941568	0.265074	-0.112055	0.00129411	1.2663	-0.0241584	0	0	-0.168198	0.103387	-0.176167	0.127713	0.119188	0	0	-0.341014	-0.0938584	-0.148728	-0.0775759	-0.264238	0.101109	0.452329	1.11421	0	0	-0.101415	-0.422458	0.280717	0.647202	1.30047	0	0
0.74	-3.01683	1.36737	-1.58257	0.619224	0.22828	0.942466	0.281332	-0.107458	-0.0106744	1.24322	-0.00484058	0	0	-0.18697	0.0969359	-0.161556	0.113755	0.120369	0	0	-0.343575	-0.0838792	-0.156618	-0.0729024	-0.26507	0.0944127	0.447843	1.12404	0	0	-0.0908826	-0.426341	0.290127	0.64919	1.29697	0	0
0.75	-3.04358	1.36676	-1.54614	0.617234	0.237438	0.943177	0.295879	-0.104698	-0.0233592	1.21585	0.0151519	0	0	-0.205549	0.0908718	-0.147555	0.100411	0.121662	0	0	-0.346384	-0.0749821	-0.162757	-0.0705534	-0.265775	0.0846786	0.446023	1.13346	0	0	-0.0791028	-0.430667	0.301087	0.652429	1.29109	0	0
0.76	-3.06721	1.36594	-1.51367	0.615394	0.246653	0.943668	0.308323	-0.102927	-0.036453	1.18414	0.0344328	0	0	-0.223592	0.0849859	-0.134939	0.0882887	0.123742	0	0	-0.349286	-0.0672208	-0.16762	-0.0698449	-0.266319	0.0736003	0.446385	1.14397	0	0	-0.0672489	-0.435139	0.310908	0.657116	1.28448	0	0
0.77	-3.08727	1.36521	-1.4856	0.613746	0.255881	0.943947	0.318908	-0.102046	-0.0500638	1.14815	0.0520583	0	0	-0.24029	0.0793569	-0.124197	0.0783743	0.126948	0	0	-0.35208	-0.0607083	-0.171623	-0.0699153	-0.26653	0.0624835	0.447826	1.15483	0	0	-0.0552581	-0.439774	0.319714	0.662432	1.27871	0	0
0.78	-3.10293	1.36469	-1.46275	0.612257	0.265129	0.944009	0.328282	-0.102712	-0.0646981	1.10849	0.0673268	0	0	-0.256167	0.0744856	-0.114786	0.0696124	0.130731	0	0	-0.354576	-0.0555572	-0.175187	-0.0704195	-0.266605	0.0538083	0.449998	1.16361	0	0	-0.0433878	-0.44431	0.327579	0.667159	1.27603	0	0
0.79	-3.11564	1.36424	-1.44398	0.610917	0.274454	0.943883	0.335927	-0.104508	-0.0805136	1.06464	0.0805643	0	0	-0.271926	0.0702828	-0.106493	0.0611423	0.134891	0	0	-0.356743	-0.0515035	-0.177884	-0.0711061	-0.266314	0.0463437	0.45201	1.17167	0	0	-0.0313754	-0.448156	0.333623	0.670932	1.27388	0	0
0.8	-3.12577	1.36398	-1.42849	0.609681	0.283823	0.943576	0.341964	-0.10759	-0.0987987	1.01723	0.0922531	0	0	-0.287242	0.0666156	-0.0989104	0.0532945	0.139434	0	0	-0.358664	-0.0483382	-0.180067	-0.0717287	-0.265608	0.0397388	0.453731	1.17844	0	0	-0.0190887	-0.451636	0.339158	0.673672	1.27304	0	0
0.81	-3.13345	1.36409	-1.41538	0.608469	0.293179	0.943101	0.34632	-0.111685	-0.120127	0.965853	0.103952	0	0	-0.301746	0.0633924	-0.0917371	0.0461989	0.144274	0	0	-0.360491	-0.0457058	-0.182745	-0.0720373	-0.264954	0.0357755	0.455577	1.18357	0	0	-0.0069383	-0.454786	0.343162	0.676573	1.27096	0	0
0.82	-3.13675	1.36482	-1.4062	0.607291	0.302498	0.942442	0.349315	-0.116578	-0.143968	0.912174	0.115954	0	0	-0.314258	0.0607677	-0.0858324	0.0418388	0.150313	0	0	-0.362013	-0.0440261	-0.186278	-0.0721692	-0.26394	0.0332582	0.457644	1.18646	0	0	0.0052491	-0.458176	0.347699	0.678806	1.269	0	0
0.83	-3.13636	1.36625	-1.40137	0.606261	0.311944	0.941574	0.351368	-0.121524	-0.168446	0.856105	0.127885	0	0	-0.325888	0.0589776	-0.0808522	0.0383268	0.15681	0	0	-0.362646	-0.0435746	-0.189257	-0.0728365	-0.262575	0.0311534	0.459968	1.18855	0	0	0.017435	-0.461426	0.352782	0.680117	1.26825	0	0
0.84	-3.13258	1.36829	-1.40087	0.60539	0.321521	0.940478	0.352219	-0.126074	-0.193085	0.796676	0.139353	0	0	-0.337375	0.058079	-0.0760924	0.0343975	0.163174	0	0	-0.362515	-0.0443427	-0.191483	-0.0740107	-0.261097	0.0299009	0.462637	1.1896	0	0	0.0293225	-0.464368	0.357042	0.681934	1.26607	0	0
0.85	-3.12475	1.37101	-1.40531	0.604664	0.331241	0.939132	0.35228	-0.130435	-0.21864	0.73463	0.150503	0	0	-0.34885	0.0582286	-0.0714645	0.0298277	0.169734	0	0	-0.361523	-0.046478	-0.192943	-0.0757321	-0.259433	0.0294508	0.465552	1.18895	0	0	0.04083	-0.467222	0.361441	0.683734	1.26267	0	0
0.86	-3.11354	1.37471	-1.41414	0.604122	0.341089	0.93751	0.352649	-0.134014	-0.243289	0.671775	0.161144	0	0	-0.359896	0.0592762	-0.0673571	0.0246662	0.176545	0	0	-0.359414	-0.0498783	-0.193475	-0.0779124	-0.257454	0.029653	0.468612	1.18651	0	0	0.0518824	-0.470014	0.366023	0.685656	1.25903	0	0
0.87	-3.09938	1.37945	-1.42713	0.60381	0.351023	0.935613	0.354141	-0.136443	-0.266153	0.610081	0.170035	0	0	-0.370229	0.061101	-0.0640575	0.019169	0.183357	0	0	-0.355972	-0.054516	-0.192861	-0.0802817	-0.25508	0.0309953	0.471198	1.18265	0	0	0.0626727	-0.472741	0.370975	0.687406	1.25526	0	0
